<?xml version="1.0" encoding="utf-8"?>
<!-- Generator: Adobe Illustrator 24.2.0, SVG Export Plug-In . SVG Version: 6.00 Build 0)  -->
<svg version="1.1" id="Capa_1" xmlns="http://www.w3.org/2000/svg" xmlns:xlink="http://www.w3.org/1999/xlink" x="0px" y="0px"
	 viewBox="0 0 24 24" style="enable-background:new 0 0 24 24;" xml:space="preserve">
<style type="text/css">
	.st0{fill:#34603F;stroke:#34603F;stroke-width:0.3;}
	.st1{fill:#34603F;stroke:#34603F;stroke-width:0.5;stroke-miterlimit:10;}
	.st2{fill:#FFFFFF;filter:url(#Adobe_OpacityMaskFilter);}
	.st3{mask:url(#path-2-outside-1_56_1680_1_);fill:none;}
</style>
<path class="st0" d="M12,7.6c1.2,0,2.3,0.5,3.1,1.3L15.3,9c0.7,0.8,1.2,1.9,1.2,3c0,0.8-0.2,1.5-0.6,2.2l-0.2,0.3
	c-0.4,0.6-1,1.2-1.7,1.5l-0.3,0.1c-0.7,0.3-1.5,0.4-2.2,0.3l-0.3-0.1c-0.9-0.2-1.7-0.6-2.3-1.2c-0.6-0.6-1-1.4-1.2-2.3
	c-0.2-0.9-0.1-1.8,0.3-2.6L8,10c0.3-0.7,0.9-1.3,1.5-1.7l0.3-0.2C10.5,7.8,11.2,7.6,12,7.6z M13.2,9.1c-0.5-0.2-1-0.3-1.6-0.2
	l-0.2,0c-0.5,0.1-1,0.3-1.4,0.7L9.8,9.8c-0.4,0.4-0.7,0.9-0.8,1.4l-0.1,0.2c-0.1,0.6-0.1,1.2,0.2,1.8l0.1,0.2
	c0.2,0.5,0.6,0.9,1.1,1.2c0.5,0.3,1.1,0.5,1.7,0.5c0.8,0,1.6-0.3,2.2-0.9s0.9-1.4,0.9-2.2c0-0.6-0.2-1.2-0.5-1.7
	C14.2,9.8,13.8,9.4,13.2,9.1z"/>
<path class="st1" d="M21.8,9.3h-1.5c0,0-0.1,0-0.1,0c0,0-0.1-0.1-0.1-0.1c-0.1-0.3-0.2-0.6-0.3-0.8c0,0,0-0.1,0-0.1c0,0,0-0.1,0-0.1
	L20.9,7c0.1-0.1,0.2-0.2,0.3-0.4c0.1-0.1,0.1-0.3,0.1-0.5c0-0.2,0-0.3-0.1-0.5c-0.1-0.1-0.1-0.3-0.3-0.4l-2.2-2.2
	c-0.1-0.1-0.2-0.2-0.4-0.3c-0.1-0.1-0.3-0.1-0.5-0.1c-0.2,0-0.3,0-0.5,0.1C17.2,2.9,17.1,3,17,3.1l-1.1,1.1c0,0-0.1,0-0.1,0
	c0,0-0.1,0-0.1,0c-0.3-0.1-0.5-0.2-0.8-0.3c0,0-0.1,0-0.1-0.1c0,0,0-0.1,0-0.1V2.2c0-0.3-0.1-0.6-0.4-0.9S13.9,1,13.5,1h-3.1
	c-0.3,0-0.6,0.1-0.9,0.4C9.4,1.6,9.3,1.9,9.3,2.2v1.5c0,0,0,0.1,0,0.1c0,0-0.1,0.1-0.1,0.1C8.8,4,8.6,4.1,8.3,4.2c0,0-0.1,0-0.1,0
	c0,0-0.1,0-0.1,0L7,3.1C6.9,3,6.8,2.9,6.6,2.9C6.5,2.8,6.3,2.8,6.2,2.8c-0.2,0-0.3,0-0.5,0.1C5.6,2.9,5.4,3,5.3,3.1L3.1,5.3
	C3,5.4,2.9,5.6,2.9,5.7C2.8,5.9,2.8,6,2.8,6.2c0,0.2,0,0.3,0.1,0.5C2.9,6.8,3,6.9,3.1,7l1.1,1.1c0,0,0,0.1,0,0.1c0,0,0,0.1,0,0.1
	C4.1,8.6,4,8.8,3.9,9.1c0,0,0,0.1-0.1,0.1c0,0-0.1,0-0.1,0H2.2c-0.3,0-0.6,0.1-0.9,0.4C1.1,9.8,1,10.1,1,10.5v3.1
	c0,0.3,0.1,0.6,0.4,0.9s0.5,0.4,0.9,0.4h1.5c0,0,0.1,0,0.1,0c0,0,0.1,0.1,0.1,0.1c0.1,0.3,0.2,0.6,0.3,0.8c0,0,0,0.1,0,0.1
	c0,0,0,0.1,0,0.1L3.1,17c-0.1,0.1-0.2,0.2-0.3,0.4c-0.1,0.1-0.1,0.3-0.1,0.5c0,0.2,0,0.3,0.1,0.5c0.1,0.1,0.1,0.3,0.3,0.4l2.2,2.2
	c0.1,0.1,0.2,0.2,0.4,0.3c0.1,0.1,0.3,0.1,0.5,0.1c0.2,0,0.3,0,0.5-0.1C6.8,21.1,6.9,21,7,20.9l1.1-1.1c0,0,0.1,0,0.1,0
	c0,0,0.1,0,0.1,0c0.3,0.1,0.5,0.2,0.8,0.3c0,0,0.1,0,0.1,0.1c0,0,0,0.1,0,0.1v1.5c0,0.3,0.1,0.6,0.4,0.9c0.2,0.2,0.5,0.4,0.9,0.4
	h3.1c0.3,0,0.6-0.1,0.9-0.4s0.4-0.5,0.4-0.9v-1.5c0,0,0-0.1,0-0.1c0,0,0.1-0.1,0.1-0.1c0.3-0.1,0.6-0.2,0.8-0.3c0,0,0.1,0,0.1,0
	c0,0,0.1,0,0.1,0l1.1,1.1c0.1,0.1,0.2,0.2,0.4,0.3c0.1,0.1,0.3,0.1,0.5,0.1c0.2,0,0.3,0,0.5-0.1c0.1-0.1,0.3-0.1,0.4-0.3l2.2-2.2
	c0.1-0.1,0.2-0.2,0.3-0.4c0.1-0.1,0.1-0.3,0.1-0.5c0-0.2,0-0.3-0.1-0.5c-0.1-0.1-0.1-0.3-0.3-0.4l-1.1-1.1c0,0,0-0.1,0-0.1
	c0,0,0-0.1,0-0.1c0.1-0.3,0.2-0.5,0.3-0.8c0,0,0-0.1,0.1-0.1c0,0,0.1,0,0.1,0h1.5c0.3,0,0.6-0.1,0.9-0.4s0.4-0.5,0.4-0.9v-3.1
	c0-0.3-0.1-0.6-0.4-0.9C22.4,9.4,22.1,9.3,21.8,9.3z M22,13.5c0,0,0,0.1-0.1,0.1s-0.1,0.1-0.1,0.1h-1.5c-0.2,0-0.5,0.1-0.7,0.2
	c-0.2,0.1-0.4,0.3-0.4,0.6c-0.1,0.2-0.2,0.5-0.3,0.7c-0.1,0.2-0.1,0.5-0.1,0.7c0,0.2,0.2,0.5,0.3,0.7l1.1,1.1c0,0,0,0.1,0,0.1
	s0,0.1,0,0.1L18,20.1c0,0-0.1,0-0.1,0c0,0-0.1,0-0.1,0l-1.1-1.1c-0.2-0.2-0.4-0.3-0.7-0.3c-0.2,0-0.5,0-0.7,0.1
	c-0.2,0.1-0.5,0.2-0.7,0.3c-0.2,0.1-0.4,0.2-0.6,0.4s-0.2,0.4-0.2,0.7v1.5c0,0,0,0.1-0.1,0.1c0,0-0.1,0.1-0.1,0.1h-3.1
	c0,0-0.1,0-0.1-0.1s-0.1-0.1-0.1-0.1v-1.5c0-0.2-0.1-0.5-0.2-0.7c-0.1-0.2-0.3-0.4-0.6-0.4C9.2,19,9,18.9,8.7,18.8
	c-0.2-0.1-0.5-0.1-0.7-0.1c-0.2,0-0.5,0.2-0.7,0.3l-1.1,1.1c0,0-0.1,0-0.1,0c0,0-0.1,0-0.1,0L3.9,18c0,0,0-0.1,0-0.1
	c0,0,0-0.1,0-0.1l1.1-1.1c0.2-0.2,0.3-0.4,0.3-0.7c0-0.2,0-0.5-0.1-0.7C5.1,15,5,14.8,4.9,14.5c-0.1-0.2-0.2-0.4-0.4-0.6
	c-0.2-0.1-0.4-0.2-0.7-0.2H2.2c0,0-0.1,0-0.1-0.1c0,0-0.1-0.1-0.1-0.1v-3.1c0,0,0-0.1,0.1-0.1c0,0,0.1-0.1,0.1-0.1h1.5
	c0.2,0,0.5-0.1,0.7-0.2c0.2-0.1,0.4-0.3,0.4-0.6C5,9.2,5.1,9,5.2,8.7C5.3,8.5,5.3,8.3,5.3,8c0-0.2-0.2-0.5-0.3-0.7L3.9,6.3
	c0,0,0-0.1,0-0.1c0,0,0-0.1,0-0.1L6,3.9c0,0,0.1,0,0.1,0c0,0,0.1,0,0.1,0l1.1,1.1C7.5,5.1,7.8,5.2,8,5.3c0.2,0,0.5,0,0.7-0.1
	C9,5.1,9.2,5,9.5,4.9c0.2-0.1,0.4-0.2,0.6-0.4c0.1-0.2,0.2-0.4,0.2-0.7V2.2c0,0,0-0.1,0.1-0.1c0,0,0.1-0.1,0.1-0.1h3.1
	c0,0,0.1,0,0.1,0.1c0,0,0.1,0.1,0.1,0.1v1.5c0,0.2,0.1,0.5,0.2,0.7c0.1,0.2,0.3,0.4,0.6,0.4C14.8,5,15,5.1,15.3,5.2
	c0.2,0.1,0.5,0.1,0.7,0.1c0.2,0,0.5-0.2,0.7-0.3l1.1-1.1c0,0,0.1,0,0.1,0s0.1,0,0.1,0L20.1,6c0,0,0,0.1,0,0.1c0,0,0,0.1,0,0.1
	l-1.1,1.1c-0.2,0.2-0.3,0.4-0.3,0.7c0,0.2,0,0.5,0.1,0.7C18.9,9,19,9.2,19.1,9.5c0.1,0.2,0.2,0.4,0.4,0.6c0.2,0.1,0.4,0.2,0.7,0.2
	h1.5c0,0,0.1,0,0.1,0.1c0,0,0.1,0.1,0.1,0.1V13.5z"/>
<defs>
	<filter id="Adobe_OpacityMaskFilter" filterUnits="userSpaceOnUse" x="1" y="1" width="22" height="22">
		<feColorMatrix  type="matrix" values="1 0 0 0 0  0 1 0 0 0  0 0 1 0 0  0 0 0 1 0"/>
	</filter>
</defs>
<mask maskUnits="userSpaceOnUse" x="1" y="1" width="22" height="22" id="path-2-outside-1_56_1680_1_">
	<rect class="st2" width="24" height="24"/>
	<path d="M21.8,9.3h-1.5c0,0-0.1,0-0.1,0c0,0-0.1-0.1-0.1-0.1c-0.1-0.3-0.2-0.6-0.3-0.8c0,0,0-0.1,0-0.1c0,0,0-0.1,0-0.1L20.9,7
		c0.1-0.1,0.2-0.2,0.3-0.4c0.1-0.1,0.1-0.3,0.1-0.5c0-0.2,0-0.3-0.1-0.5c-0.1-0.1-0.1-0.3-0.3-0.4l-2.2-2.2
		c-0.1-0.1-0.2-0.2-0.4-0.3c-0.1-0.1-0.3-0.1-0.5-0.1c-0.2,0-0.3,0-0.5,0.1C17.2,2.9,17.1,3,17,3.1l-1.1,1.1c0,0-0.1,0-0.1,0
		c0,0-0.1,0-0.1,0c-0.3-0.1-0.5-0.2-0.8-0.3c0,0-0.1,0-0.1-0.1c0,0,0-0.1,0-0.1V2.2c0-0.3-0.1-0.6-0.4-0.9S13.9,1,13.5,1h-3.1
		c-0.3,0-0.6,0.1-0.9,0.4C9.4,1.6,9.3,1.9,9.3,2.2v1.5c0,0,0,0.1,0,0.1c0,0-0.1,0.1-0.1,0.1C8.8,4,8.6,4.1,8.3,4.2c0,0-0.1,0-0.1,0
		c0,0-0.1,0-0.1,0L7,3.1C6.9,3,6.8,2.9,6.6,2.9C6.5,2.8,6.3,2.8,6.2,2.8c-0.2,0-0.3,0-0.5,0.1C5.6,2.9,5.4,3,5.3,3.1L3.1,5.3
		C3,5.4,2.9,5.6,2.9,5.7C2.8,5.9,2.8,6,2.8,6.2c0,0.2,0,0.3,0.1,0.5C2.9,6.8,3,6.9,3.1,7l1.1,1.1c0,0,0,0.1,0,0.1c0,0,0,0.1,0,0.1
		C4.1,8.6,4,8.8,3.9,9.1c0,0,0,0.1-0.1,0.1c0,0-0.1,0-0.1,0H2.2c-0.3,0-0.6,0.1-0.9,0.4C1.1,9.8,1,10.1,1,10.5v3.1
		c0,0.3,0.1,0.6,0.4,0.9s0.5,0.4,0.9,0.4h1.5c0,0,0.1,0,0.1,0c0,0,0.1,0.1,0.1,0.1c0.1,0.3,0.2,0.6,0.3,0.8c0,0,0,0.1,0,0.1
		c0,0,0,0.1,0,0.1L3.1,17c-0.1,0.1-0.2,0.2-0.3,0.4c-0.1,0.1-0.1,0.3-0.1,0.5c0,0.2,0,0.3,0.1,0.5c0.1,0.1,0.1,0.3,0.3,0.4l2.2,2.2
		c0.1,0.1,0.2,0.2,0.4,0.3c0.1,0.1,0.3,0.1,0.5,0.1c0.2,0,0.3,0,0.5-0.1C6.8,21.1,6.9,21,7,20.9l1.1-1.1c0,0,0.1,0,0.1,0
		c0,0,0.1,0,0.1,0c0.3,0.1,0.5,0.2,0.8,0.3c0,0,0.1,0,0.1,0.1c0,0,0,0.1,0,0.1v1.5c0,0.3,0.1,0.6,0.4,0.9c0.2,0.2,0.5,0.4,0.9,0.4
		h3.1c0.3,0,0.6-0.1,0.9-0.4s0.4-0.5,0.4-0.9v-1.5c0,0,0-0.1,0-0.1c0,0,0.1-0.1,0.1-0.1c0.3-0.1,0.6-0.2,0.8-0.3c0,0,0.1,0,0.1,0
		c0,0,0.1,0,0.1,0l1.1,1.1c0.1,0.1,0.2,0.2,0.4,0.3c0.1,0.1,0.3,0.1,0.5,0.1c0.2,0,0.3,0,0.5-0.1c0.1-0.1,0.3-0.1,0.4-0.3l2.2-2.2
		c0.1-0.1,0.2-0.2,0.3-0.4c0.1-0.1,0.1-0.3,0.1-0.5c0-0.2,0-0.3-0.1-0.5c-0.1-0.1-0.1-0.3-0.3-0.4l-1.1-1.1c0,0,0-0.1,0-0.1
		c0,0,0-0.1,0-0.1c0.1-0.3,0.2-0.5,0.3-0.8c0,0,0-0.1,0.1-0.1c0,0,0.1,0,0.1,0h1.5c0.3,0,0.6-0.1,0.9-0.4s0.4-0.5,0.4-0.9v-3.1
		c0-0.3-0.1-0.6-0.4-0.9C22.4,9.4,22.1,9.3,21.8,9.3z M22,13.5c0,0,0,0.1-0.1,0.1s-0.1,0.1-0.1,0.1h-1.5c-0.2,0-0.5,0.1-0.7,0.2
		c-0.2,0.1-0.4,0.3-0.4,0.6c-0.1,0.2-0.2,0.5-0.3,0.7c-0.1,0.2-0.1,0.5-0.1,0.7c0,0.2,0.2,0.5,0.3,0.7l1.1,1.1c0,0,0,0.1,0,0.1
		s0,0.1,0,0.1L18,20.1c0,0-0.1,0-0.1,0c0,0-0.1,0-0.1,0l-1.1-1.1c-0.2-0.2-0.4-0.3-0.7-0.3c-0.2,0-0.5,0-0.7,0.1
		c-0.2,0.1-0.5,0.2-0.7,0.3c-0.2,0.1-0.4,0.2-0.6,0.4s-0.2,0.4-0.2,0.7v1.5c0,0,0,0.1-0.1,0.1c0,0-0.1,0.1-0.1,0.1h-3.1
		c0,0-0.1,0-0.1-0.1s-0.1-0.1-0.1-0.1v-1.5c0-0.2-0.1-0.5-0.2-0.7c-0.1-0.2-0.3-0.4-0.6-0.4C9.2,19,9,18.9,8.7,18.8
		c-0.2-0.1-0.5-0.1-0.7-0.1c-0.2,0-0.5,0.2-0.7,0.3l-1.1,1.1c0,0-0.1,0-0.1,0c0,0-0.1,0-0.1,0L3.9,18c0,0,0-0.1,0-0.1
		c0,0,0-0.1,0-0.1l1.1-1.1c0.2-0.2,0.3-0.4,0.3-0.7c0-0.2,0-0.5-0.1-0.7C5.1,15,5,14.8,4.9,14.5c-0.1-0.2-0.2-0.4-0.4-0.6
		c-0.2-0.1-0.4-0.2-0.7-0.2H2.2c0,0-0.1,0-0.1-0.1c0,0-0.1-0.1-0.1-0.1v-3.1c0,0,0-0.1,0.1-0.1c0,0,0.1-0.1,0.1-0.1h1.5
		c0.2,0,0.5-0.1,0.7-0.2c0.2-0.1,0.4-0.3,0.4-0.6C5,9.2,5.1,9,5.2,8.7C5.3,8.5,5.3,8.3,5.3,8c0-0.2-0.2-0.5-0.3-0.7L3.9,6.3
		c0,0,0-0.1,0-0.1c0,0,0-0.1,0-0.1L6,3.9c0,0,0.1,0,0.1,0c0,0,0.1,0,0.1,0l1.1,1.1C7.5,5.1,7.8,5.2,8,5.3c0.2,0,0.5,0,0.7-0.1
		C9,5.1,9.2,5,9.5,4.9c0.2-0.1,0.4-0.2,0.6-0.4c0.1-0.2,0.2-0.4,0.2-0.7V2.2c0,0,0-0.1,0.1-0.1c0,0,0.1-0.1,0.1-0.1h3.1
		c0,0,0.1,0,0.1,0.1c0,0,0.1,0.1,0.1,0.1v1.5c0,0.2,0.1,0.5,0.2,0.7c0.1,0.2,0.3,0.4,0.6,0.4C14.8,5,15,5.1,15.3,5.2
		c0.2,0.1,0.5,0.1,0.7,0.1c0.2,0,0.5-0.2,0.7-0.3l1.1-1.1c0,0,0.1,0,0.1,0s0.1,0,0.1,0L20.1,6c0,0,0,0.1,0,0.1c0,0,0,0.1,0,0.1
		l-1.1,1.1c-0.2,0.2-0.3,0.4-0.3,0.7c0,0.2,0,0.5,0.1,0.7C18.9,9,19,9.2,19.1,9.5c0.1,0.2,0.2,0.4,0.4,0.6c0.2,0.1,0.4,0.2,0.7,0.2
		h1.5c0,0,0.1,0,0.1,0.1c0,0,0.1,0.1,0.1,0.1V13.5z"/>
</mask>
<path class="st3" d="M21.8,9.3h-1.5c0,0-0.1,0-0.1,0c0,0-0.1-0.1-0.1-0.1c-0.1-0.3-0.2-0.6-0.3-0.8c0,0,0-0.1,0-0.1c0,0,0-0.1,0-0.1
	L20.9,7c0.1-0.1,0.2-0.2,0.3-0.4c0.1-0.1,0.1-0.3,0.1-0.5c0-0.2,0-0.3-0.1-0.5c-0.1-0.1-0.1-0.3-0.3-0.4l-2.2-2.2
	c-0.1-0.1-0.2-0.2-0.4-0.3c-0.1-0.1-0.3-0.1-0.5-0.1c-0.2,0-0.3,0-0.5,0.1C17.2,2.9,17.1,3,17,3.1l-1.1,1.1c0,0-0.1,0-0.1,0
	c0,0-0.1,0-0.1,0c-0.3-0.1-0.5-0.2-0.8-0.3c0,0-0.1,0-0.1-0.1c0,0,0-0.1,0-0.1V2.2c0-0.3-0.1-0.6-0.4-0.9S13.9,1,13.5,1h-3.1
	c-0.3,0-0.6,0.1-0.9,0.4C9.4,1.6,9.3,1.9,9.3,2.2v1.5c0,0,0,0.1,0,0.1c0,0-0.1,0.1-0.1,0.1C8.8,4,8.6,4.1,8.3,4.2c0,0-0.1,0-0.1,0
	c0,0-0.1,0-0.1,0L7,3.1C6.9,3,6.8,2.9,6.6,2.9C6.5,2.8,6.3,2.8,6.2,2.8c-0.2,0-0.3,0-0.5,0.1C5.6,2.9,5.4,3,5.3,3.1L3.1,5.3
	C3,5.4,2.9,5.6,2.9,5.7C2.8,5.9,2.8,6,2.8,6.2c0,0.2,0,0.3,0.1,0.5C2.9,6.8,3,6.9,3.1,7l1.1,1.1c0,0,0,0.1,0,0.1c0,0,0,0.1,0,0.1
	C4.1,8.6,4,8.8,3.9,9.1c0,0,0,0.1-0.1,0.1c0,0-0.1,0-0.1,0H2.2c-0.3,0-0.6,0.1-0.9,0.4C1.1,9.8,1,10.1,1,10.5v3.1
	c0,0.3,0.1,0.6,0.4,0.9s0.5,0.4,0.9,0.4h1.5c0,0,0.1,0,0.1,0c0,0,0.1,0.1,0.1,0.1c0.1,0.3,0.2,0.6,0.3,0.8c0,0,0,0.1,0,0.1
	c0,0,0,0.1,0,0.1L3.1,17c-0.1,0.1-0.2,0.2-0.3,0.4c-0.1,0.1-0.1,0.3-0.1,0.5c0,0.2,0,0.3,0.1,0.5c0.1,0.1,0.1,0.3,0.3,0.4l2.2,2.2
	c0.1,0.1,0.2,0.2,0.4,0.3c0.1,0.1,0.3,0.1,0.5,0.1c0.2,0,0.3,0,0.5-0.1C6.8,21.1,6.9,21,7,20.9l1.1-1.1c0,0,0.1,0,0.1,0
	c0,0,0.1,0,0.1,0c0.3,0.1,0.5,0.2,0.8,0.3c0,0,0.1,0,0.1,0.1c0,0,0,0.1,0,0.1v1.5c0,0.3,0.1,0.6,0.4,0.9c0.2,0.2,0.5,0.4,0.9,0.4
	h3.1c0.3,0,0.6-0.1,0.9-0.4s0.4-0.5,0.4-0.9v-1.5c0,0,0-0.1,0-0.1c0,0,0.1-0.1,0.1-0.1c0.3-0.1,0.6-0.2,0.8-0.3c0,0,0.1,0,0.1,0
	c0,0,0.1,0,0.1,0l1.1,1.1c0.1,0.1,0.2,0.2,0.4,0.3c0.1,0.1,0.3,0.1,0.5,0.1c0.2,0,0.3,0,0.5-0.1c0.1-0.1,0.3-0.1,0.4-0.3l2.2-2.2
	c0.1-0.1,0.2-0.2,0.3-0.4c0.1-0.1,0.1-0.3,0.1-0.5c0-0.2,0-0.3-0.1-0.5c-0.1-0.1-0.1-0.3-0.3-0.4l-1.1-1.1c0,0,0-0.1,0-0.1
	c0,0,0-0.1,0-0.1c0.1-0.3,0.2-0.5,0.3-0.8c0,0,0-0.1,0.1-0.1c0,0,0.1,0,0.1,0h1.5c0.3,0,0.6-0.1,0.9-0.4s0.4-0.5,0.4-0.9v-3.1
	c0-0.3-0.1-0.6-0.4-0.9C22.4,9.4,22.1,9.3,21.8,9.3z M22,13.5c0,0,0,0.1-0.1,0.1s-0.1,0.1-0.1,0.1h-1.5c-0.2,0-0.5,0.1-0.7,0.2
	c-0.2,0.1-0.4,0.3-0.4,0.6c-0.1,0.2-0.2,0.5-0.3,0.7c-0.1,0.2-0.1,0.5-0.1,0.7c0,0.2,0.2,0.5,0.3,0.7l1.1,1.1c0,0,0,0.1,0,0.1
	s0,0.1,0,0.1L18,20.1c0,0-0.1,0-0.1,0c0,0-0.1,0-0.1,0l-1.1-1.1c-0.2-0.2-0.4-0.3-0.7-0.3c-0.2,0-0.5,0-0.7,0.1
	c-0.2,0.1-0.5,0.2-0.7,0.3c-0.2,0.1-0.4,0.2-0.6,0.4s-0.2,0.4-0.2,0.7v1.5c0,0,0,0.1-0.1,0.1c0,0-0.1,0.1-0.1,0.1h-3.1
	c0,0-0.1,0-0.1-0.1s-0.1-0.1-0.1-0.1v-1.5c0-0.2-0.1-0.5-0.2-0.7c-0.1-0.2-0.3-0.4-0.6-0.4C9.2,19,9,18.9,8.7,18.8
	c-0.2-0.1-0.5-0.1-0.7-0.1c-0.2,0-0.5,0.2-0.7,0.3l-1.1,1.1c0,0-0.1,0-0.1,0c0,0-0.1,0-0.1,0L3.9,18c0,0,0-0.1,0-0.1
	c0,0,0-0.1,0-0.1l1.1-1.1c0.2-0.2,0.3-0.4,0.3-0.7c0-0.2,0-0.5-0.1-0.7C5.1,15,5,14.8,4.9,14.5c-0.1-0.2-0.2-0.4-0.4-0.6
	c-0.2-0.1-0.4-0.2-0.7-0.2H2.2c0,0-0.1,0-0.1-0.1c0,0-0.1-0.1-0.1-0.1v-3.1c0,0,0-0.1,0.1-0.1c0,0,0.1-0.1,0.1-0.1h1.5
	c0.2,0,0.5-0.1,0.7-0.2c0.2-0.1,0.4-0.3,0.4-0.6C5,9.2,5.1,9,5.2,8.7C5.3,8.5,5.3,8.3,5.3,8c0-0.2-0.2-0.5-0.3-0.7L3.9,6.3
	c0,0,0-0.1,0-0.1c0,0,0-0.1,0-0.1L6,3.9c0,0,0.1,0,0.1,0c0,0,0.1,0,0.1,0l1.1,1.1C7.5,5.1,7.8,5.2,8,5.3c0.2,0,0.5,0,0.7-0.1
	C9,5.1,9.2,5,9.5,4.9c0.2-0.1,0.4-0.2,0.6-0.4c0.1-0.2,0.2-0.4,0.2-0.7V2.2c0,0,0-0.1,0.1-0.1c0,0,0.1-0.1,0.1-0.1h3.1
	c0,0,0.1,0,0.1,0.1c0,0,0.1,0.1,0.1,0.1v1.5c0,0.2,0.1,0.5,0.2,0.7c0.1,0.2,0.3,0.4,0.6,0.4C14.8,5,15,5.1,15.3,5.2
	c0.2,0.1,0.5,0.1,0.7,0.1c0.2,0,0.5-0.2,0.7-0.3l1.1-1.1c0,0,0.1,0,0.1,0s0.1,0,0.1,0L20.1,6c0,0,0,0.1,0,0.1c0,0,0,0.1,0,0.1
	l-1.1,1.1c-0.2,0.2-0.3,0.4-0.3,0.7c0,0.2,0,0.5,0.1,0.7C18.9,9,19,9.2,19.1,9.5c0.1,0.2,0.2,0.4,0.4,0.6c0.2,0.1,0.4,0.2,0.7,0.2
	h1.5c0,0,0.1,0,0.1,0.1c0,0,0.1,0.1,0.1,0.1V13.5z"/>
</svg>
