<?xml version="1.0" encoding="utf-8"?>
<!-- Generator: Adobe Illustrator 24.2.0, SVG Export Plug-In . SVG Version: 6.00 Build 0)  -->
<svg version="1.1" id="Capa_1" xmlns="http://www.w3.org/2000/svg" xmlns:xlink="http://www.w3.org/1999/xlink" x="0px" y="0px"
	 viewBox="0 0 20 18" style="enable-background:new 0 0 20 18;" xml:space="preserve">
<style type="text/css">
	.st0{fill:#34603F;}
	.st1{display:none;}
	.st2{display:inline;}
	.st3{fill:#34603F;stroke:#34603F;stroke-width:0.9869;stroke-miterlimit:10;}
</style>
<g id="Capa_1_1_">
	<g>
		<g>
			<circle class="st0" cx="-12" cy="4.4" r="1"/>
			<path class="st0" d="M-13-0.6c-3,0-5.5,2.2-5.9,5.2v0.3V5l-7.3,6.4c-0.6,0.3-0.8,0.9-0.8,1.5v2.5c0,1.1,0.9,2,2,2h2
				c1.1,0,2-0.9,2-2v-0.5h1c0.8,0,1.5-0.7,1.5-1.5v-0.5h0.6c0.5,0,1-0.2,1.4-0.6l1.3-1.3h0.1c0.7,0.3,1.4,0.4,2.1,0.4
				c3.3,0,6-2.7,6-6C-7,2.1-9.7-0.6-13-0.6z M-13,9.4c-0.5,0-0.9-0.1-1.4-0.2C-15.1,8.9-16,9-16.7,9.7L-18,11h-1
				c-0.8,0-1.5,0.7-1.5,1.5V13h-1c-0.8-0.1-1.5,0.6-1.5,1.4v1h-2v-2.5l7.3-6.4l0.2-0.2C-17.2,5.9-17,5.5-17,5V4.8
				c0.3-1.9,2-3.4,4-3.4c2.2,0,4,1.8,4,4C-9,7.6-10.8,9.4-13,9.4z"/>
		</g>
	</g>
</g>
<g id="Capa_2_1_" class="st1">
	<g class="st2">
		<path class="st3" d="M14.9,48c0-0.2,0-0.5,0-0.7c0-2.9-1.7-4.4-3.9-4.4H8.6c-2.1,0-3.9,2.4-3.9,5.3V54c0.2,3,1.7,5.3,3.9,5.3H10
			h1.1c2.1,0,3.8-2,3.9-5c0-0.2,0-0.6,0-0.6c0-0.2,0.2-0.4,0.4-0.4s0.4,0.2,0.4,0.4c0,0.1,0,0.3,0,0.6c0,1,0.1,2.4-1.2,3.9
			c-0.9,1.1-2.5,1.8-3.4,1.9c-0.1,0-0.2,0-1.2,0s-1.1,0-1.2,0c-1,0-2.4-0.8-3.3-1.8S4.2,56.2,4.1,54c0-2.1,0-3.8,0-5.8
			c0-2.2,0.5-3.3,1.4-4.3c1.2-1.4,2.8-1.8,3.3-1.8c1.1,0,2,0,2.4,0c0.6,0.1,2.3,0.3,3.4,1.6c1.2,1.5,1.1,2.6,1.2,3.6
			c0,0.3,0,0.6,0,0.7c0,0.2-0.2,0.4-0.4,0.4C15.1,48.4,14.9,48.2,14.9,48z"/>
		<path class="st0" d="M22.6,50.7c0,0.5-0.4,0.9-0.8,0.9H10.1c-0.4,0-0.8-0.4-0.8-0.9l0,0c0-0.5,0.4-0.9,0.8-0.9h11.7
			C22.2,49.8,22.6,50.2,22.6,50.7L22.6,50.7z"/>
		<path class="st0" d="M23.7,50c0.4,0.4,0.4,1,0,1.4l-4.1,4.2c-0.3,0.3-0.8,0.3-1.2-0.1c-0.2-0.2-0.3-0.4-0.3-0.7
			c0-0.2,0.1-0.4,0.2-0.5l3.5-3.6l-3.5-3.6c-0.1-0.1-0.2-0.3-0.2-0.5s0.1-0.5,0.3-0.7c0.3-0.4,0.9-0.4,1.2-0.1L23.7,50z"/>
	</g>
</g>
<g id="Capa_1_2_">
	<g>
		<g>
			<path class="st0" d="M15,4.1c-0.3,0-0.5,0.1-0.6,0.2S14.1,4.7,14.1,5s0.1,0.5,0.2,0.6s0.4,0.2,0.6,0.2s0.5-0.1,0.6-0.2
				s0.2-0.4,0.2-0.6s-0.1-0.5-0.2-0.6S15.3,4.1,15,4.1z"/>
			<path class="st0" d="M18.2,1.8c-1.1-1.1-2.5-1.7-4.2-1.7c-1.5,0-2.8,0.5-3.8,1.4S8.4,3.7,8.2,5.2l0,0.2l0,0.2l0,0l0,0L4.5,8.9
				l-3.7,3.2c-0.3,0.2-0.5,0.4-0.6,0.6s-0.1,0.5-0.1,0.8v1.3V16c0,0.5,0.2,1,0.5,1.3s0.8,0.5,1.3,0.5h1h1c0.5,0,1-0.2,1.3-0.5
				s0.5-0.8,0.5-1.3v-0.3v-0.3h0.6H7c0.4,0,0.7-0.2,1-0.4s0.4-0.6,0.4-1v-0.3v-0.3h0.4h0.4c0.2,0,0.5-0.1,0.7-0.1s0.4-0.2,0.6-0.4
				l0.7-0.7l0.7-0.7l0.1,0l0.1,0c0.3,0.1,0.6,0.2,1,0.3s0.7,0.1,1.1,0.1c1.6,0,3.1-0.7,4.2-1.7s1.7-2.5,1.7-4.2S19.2,2.9,18.2,1.8z
				 M16.9,8.9c-0.7,0.7-1.8,1.2-2.9,1.2c-0.2,0-0.4,0-0.6,0S13,10,12.8,10l-0.1,0l-0.1,0c-0.3-0.1-0.7-0.2-1-0.1s-0.8,0.2-1.1,0.6
				l-0.7,0.7l-0.7,0.7H8.5H8c-0.4,0-0.7,0.2-1,0.4s-0.4,0.6-0.4,1v0.3v0.3H6.1H5.5c-0.2,0-0.3,0-0.5,0S4.7,13.9,4.6,14
				c-0.1,0.1-0.3,0.3-0.3,0.4S4.1,14.8,4.1,15v0.6v0.6H3H1.9v-1.3v-1.3l0,0l0,0l3.7-3.2L9.2,7l0.1-0.1l0.1-0.1
				c0.2-0.2,0.3-0.4,0.4-0.6s0.1-0.4,0.1-0.6V5.5V5.4c0.2-1,0.7-1.9,1.4-2.5s1.7-1,2.7-1c1.1,0,2.2,0.5,2.9,1.2s1.2,1.8,1.2,2.9
				S17.7,8.2,16.9,8.9z"/>
		</g>
	</g>
</g>
</svg>
