<svg xmlns="http://www.w3.org/2000/svg" viewBox="0 0 19.75 17.75"><defs><style>.cls-1{fill:#34603f;}</style></defs><g id="Capa_2" data-name="Capa 2"><g id="Capa_1-2" data-name="Capa 1"><g id="Capa_1-3" data-name="Capa 1"><path class="cls-1" d="M18.28,2A5.89,5.89,0,0,0,14.13.25a5.79,5.79,0,0,0-3.85,1.44A5.87,5.87,0,0,0,8.35,5.34v.44l0,0,0,0L4.64,9,1,12.24a1.24,1.24,0,0,0-.59.63,1.89,1.89,0,0,0-.14.76v2.5A1.88,1.88,0,0,0,2.13,18h2A1.88,1.88,0,0,0,6,16.13V15.5H7.13A1.4,1.4,0,0,0,8.5,14.13V13.5h.72a1.74,1.74,0,0,0,.71-.15,2,2,0,0,0,.61-.41l.66-.67.67-.67h.2a4.53,4.53,0,0,0,1,.29,5.39,5.39,0,0,0,1.09.1A5.88,5.88,0,0,0,18.28,2ZM17,9a4.07,4.07,0,0,1-3.53,1.16l-.59-.11-.11,0-.11,0a2,2,0,0,0-1-.14,2.09,2.09,0,0,0-1.14.6l-.66.67-.67.67h-1a1.4,1.4,0,0,0-1,.41,1.38,1.38,0,0,0-.41,1v.63H5.63a1.19,1.19,0,0,0-.5,0,1.24,1.24,0,0,0-.43.25,1.45,1.45,0,0,0-.33.45,1.25,1.25,0,0,0-.12.54v1.12H2V13.57l0,0,0,0,3.65-3.2,3.65-3.2.1-.1.1-.09a2.83,2.83,0,0,0,.35-.62,1.73,1.73,0,0,0,.11-.6v-.2A4.14,4.14,0,0,1,11.42,3a4.18,4.18,0,0,1,2.71-1A4.12,4.12,0,0,1,17,9Z" transform="translate(-0.25 -0.25)"/><path class="cls-1" d="M15.13,4.25a.82.82,0,1,0,.63.24A.88.88,0,0,0,15.13,4.25Z" transform="translate(-0.25 -0.25)"/></g></g></g></svg>